<svg xmlns="http://www.w3.org/2000/svg" viewBox="0 0 167 47.3132"><title>Ativo 66</title><path d="M.0371,11.8059,0,11.8275.012,35.48H.16S.1478,11.9979.1478,11.9127C.2219,11.87,20.571.1281,20.571.1281L20.4969,0Z" fill="#1160aa" fill-rule="evenodd"/><polygon points="18.113 22.295 2.496 13.273 18.109 4.263 18.113 22.295" fill="#8399ce" fill-rule="evenodd"/><polygon points="2.496 13.273 18.113 22.295 2.499 31.304 2.496 13.273" fill="#1160aa" fill-rule="evenodd"/><polygon points="20.493 23.654 40.967 35.456 40.98 11.819 20.497 0 20.493 23.654" fill="#1160aa" fill-rule="evenodd"/><polygon points="22.921 22.256 38.555 13.224 22.924 4.204 22.921 22.256" fill="#8399ce" fill-rule="evenodd"/><polygon points="38.555 13.224 22.921 22.256 38.552 31.275 38.555 13.224" fill="#fff" fill-rule="evenodd"/><polygon points="20.498 47.313 40.957 35.483 20.493 23.654 0.015 35.483 20.498 47.313" fill="#8399ce" fill-rule="evenodd"/><polygon points="20.501 44.511 20.496 26.456 4.87 35.483 20.501 44.511" fill="#1160aa" fill-rule="evenodd"/><polygon points="20.496 26.456 20.501 44.511 36.128 35.484 20.496 26.456" fill="#fff" fill-rule="evenodd"/><path d="M46.9,41.4356a2.3414,2.3414,0,0,0,.0878.6445,2.4962,2.4962,0,0,0,.2452.5808,2.3626,2.3626,0,0,0,.3792.4907,2.5066,2.5066,0,0,0,.491.3792,2.3847,2.3847,0,0,0,1.2227.331,2.3421,2.3421,0,0,0,.7362-.1146,2.6192,2.6192,0,0,0,.6445-.313.48.48,0,0,1,.1219-.0552.4564.4564,0,0,1,.1334-.02.4741.4741,0,0,1,.2016.04.533.533,0,0,1,.1535.1073l.04.04a2.9665,2.9665,0,0,1-.9178.5983,2.95,2.95,0,0,1-2.25-.0128,2.9369,2.9369,0,0,1-1.5542-1.5562,2.94,2.94,0,0,1,0-2.2787A2.9369,2.9369,0,0,1,48.1894,38.74a2.9539,2.9539,0,0,1,2.2544-.0118,2.9473,2.9473,0,0,1,.9138.6043l-.04.0361a.54.54,0,0,1-.1595.1116.467.467,0,0,1-.1956.04.4409.4409,0,0,1-.2553-.08,2.4829,2.4829,0,0,0-.6425-.3172,2.3579,2.3579,0,0,0-.7382-.1138,2.3816,2.3816,0,0,0-1.2227.3313,2.5259,2.5259,0,0,0-.491.3792,2.3626,2.3626,0,0,0-.3792.4907,2.4989,2.4989,0,0,0-.2452.5805A2.344,2.344,0,0,0,46.9,41.4356Z" fill="#1160aa"/><path d="M53.9429,40.0431a2.0881,2.0881,0,0,1,.7127.1216,2.1242,2.1242,0,0,1,1.0733.85,2.2931,2.2931,0,0,1,.2894.6482.599.599,0,0,1,.02.14A.4952.4952,0,0,1,56,41.9963a.56.56,0,0,1-.1018.16.4677.4677,0,0,1-.1515.11.45.45,0,0,1-.1876.04h-3.26a1.5766,1.5766,0,0,0,.152.6146,1.6076,1.6076,0,0,0,.8656.812,1.6563,1.6563,0,0,0,.6264.1179,1.17,1.17,0,0,0,.2257-.0241,1.823,1.823,0,0,0,.2432-.0657,2.3445,2.3445,0,0,0,.24-.0978,1.9677,1.9677,0,0,0,.2172-.12.3907.3907,0,0,1,.1259-.0517.59.59,0,0,1,.1334-.016.4235.4235,0,0,1,.1138.014.3883.3883,0,0,1,.0938.04.6336.6336,0,0,1,.0858.0617c.0281.0241.0592.0494.0938.076a2.4658,2.4658,0,0,1-.71.4927,2.3579,2.3579,0,0,1-.4213.1477,1.829,1.829,0,0,1-.4408.0539,2.0985,2.0985,0,0,1-.5742-.078,2.2031,2.2031,0,0,1-.5151-.2174,2.1272,2.1272,0,0,1-.4368-.3373,2.1874,2.1874,0,0,1-.339-.4368,2.14,2.14,0,0,1-.2974-1.0893,2.0776,2.0776,0,0,1,.1715-.84,2.19,2.19,0,0,1,1.155-1.1492A2.0877,2.0877,0,0,1,53.9429,40.0431Zm.004.5108a1.6517,1.6517,0,0,0-1.0953.405,1.62,1.62,0,0,0-.3591.4489,1.602,1.602,0,0,0-.1816.5627.4809.4809,0,0,1,.07-.1159.1706.1706,0,0,1,.1419-.0637h3.0006a1.6114,1.6114,0,0,0-.2257-.5248,1.5805,1.5805,0,0,0-.3651-.3889,1.559,1.559,0,0,0-.4644-.2415A1.6893,1.6893,0,0,0,53.9469,40.5539Z" fill="#1160aa"/><path d="M57.14,40.1068a.6037.6037,0,0,1,.0356.0938.7.7,0,0,1,.016.1775v.3634a1.856,1.856,0,0,1,.3235-.3114,1.947,1.947,0,0,1,.7458-.3471,1.7432,1.7432,0,0,1,.3832-.0439,1.4229,1.4229,0,0,1,.6169.13,1.2935,1.2935,0,0,1,.4644.3711,1.7375,1.7375,0,0,1,.2954.5845,2.6422,2.6422,0,0,1,.1038.7663v2.4061h-.5106V41.8907a1.6872,1.6872,0,0,0-.25-.9918.88.88,0,0,0-.7678-.3491,1.8735,1.8735,0,0,0-.5426.0757,1.5217,1.5217,0,0,0-.4393.2076,1.099,1.099,0,0,0-.2989.3052.7515.7515,0,0,0-.1239.3651v2.7932h-.5106v-4.19Z" fill="#1160aa"/><path d="M61.9156,43.3231a.6114.6114,0,0,0,.0341.1976.6354.6354,0,0,0,.0978.1856.4926.4926,0,0,0,.1575.1357.44.44,0,0,0,.2172.0519l.1239-.016a1.1,1.1,0,0,1,.2834-.0479.3658.3658,0,0,1,.2217.072.8177.8177,0,0,1,.1735.1755l.012.0158a1.2916,1.2916,0,0,1-.1916.1038,2.1415,2.1415,0,0,1-.2217.0838,2.0714,2.0714,0,0,1-.2237.0579,1.02,1.02,0,0,1-.1971.0221,1.0771,1.0771,0,0,1-.4153-.076.8872.8872,0,0,1-.313-.2134.9363.9363,0,0,1-.2-.3293,1.2123,1.2123,0,0,1-.07-.419V40.5777h-.7583v-.2951q0-.1836.49-.1836h.2678v-.9459a.8426.8426,0,0,1,.0456-.2992,1.1885,1.1885,0,0,1,.0817-.18h.3832V40.103h1.2568v.4747H61.9156Z" fill="#1160aa"/><path d="M64.0391,40.1068a.77.77,0,0,1,.0356.086.3232.3232,0,0,1,.016.1056v.4709a.9133.9133,0,0,1,.2317-.2894,1.6642,1.6642,0,0,1,.3551-.2315,2.0016,2.0016,0,0,1,.4308-.1515,2.0251,2.0251,0,0,1,.4629-.0539,1.6028,1.6028,0,0,1,.4669.0677l-.04.22a.32.32,0,0,1-.0517.1357.2164.2164,0,0,1-.0858.07.33.33,0,0,1-.1118.0258c-.0411.0028-.0833.004-.1259.004h-.06a1.5968,1.5968,0,0,0-.5527.0958,1.7951,1.7951,0,0,0-.4629.2475,1.3178,1.3178,0,0,0-.323.341.79.79,0,0,0-.1339.3771v2.67H63.58v-4.19Z" fill="#1160aa"/><path d="M66.0341,42.2019a2.14,2.14,0,0,1,.2974-1.09,2.1874,2.1874,0,0,1,.339-.4368,2.1448,2.1448,0,0,1,.4368-.3373,2.2137,2.2137,0,0,1,.5151-.2174,2.1518,2.1518,0,0,1,1.41.0918,2.1683,2.1683,0,0,1,1.1495,1.1492,2.1656,2.1656,0,0,1,0,1.68,2.1683,2.1683,0,0,1-1.1495,1.1492,2.1473,2.1473,0,0,1-1.41.0918,2.2031,2.2031,0,0,1-.5151-.2174,2.1272,2.1272,0,0,1-.4368-.3373,2.1874,2.1874,0,0,1-.339-.4368,2.14,2.14,0,0,1-.2974-1.0893Zm.5106,0a1.6281,1.6281,0,0,0,.1279.6465,1.6537,1.6537,0,1,0,2.1666-2.1668,1.6624,1.6624,0,0,0-1.8155.3511,1.6449,1.6449,0,0,0-.3511.5228A1.6272,1.6272,0,0,0,66.5447,42.2019Z" fill="#1160aa"/><path d="M77.7573,44.2928h-.495v-2.63H73.8945v2.63h-.499V38.5746h.499v2.59h3.3677v-2.59h.495Z" fill="#1160aa"/><path d="M78.5517,42.2019a2.14,2.14,0,0,1,.2974-1.09,2.1874,2.1874,0,0,1,.339-.4368,2.1448,2.1448,0,0,1,.4368-.3373,2.2137,2.2137,0,0,1,.5151-.2174,2.1518,2.1518,0,0,1,1.41.0918A2.1683,2.1683,0,0,1,82.7,41.3618a2.1656,2.1656,0,0,1,0,1.68A2.1683,2.1683,0,0,1,81.55,44.1909a2.1473,2.1473,0,0,1-1.41.0918,2.2031,2.2031,0,0,1-.5151-.2174,2.1272,2.1272,0,0,1-.4368-.3373,2.1874,2.1874,0,0,1-.339-.4368,2.14,2.14,0,0,1-.2974-1.0893Zm.5106,0a1.6281,1.6281,0,0,0,.1279.6465,1.6537,1.6537,0,1,0,2.1666-2.1668,1.6624,1.6624,0,0,0-1.8155.3511,1.6449,1.6449,0,0,0-.3511.5228A1.6272,1.6272,0,0,0,79.0622,42.2019Z" fill="#1160aa"/><path d="M83.0042,43.7062q.1279-.0639.2016-.1018a.3559.3559,0,0,1,.1655-.0379.6359.6359,0,0,1,.14.016.5716.5716,0,0,1,.18.0878.9439.9439,0,0,0,.2613.1276.9816.9816,0,0,0,.2934.0439,1.2052,1.2052,0,0,0,.327-.0459.9924.9924,0,0,0,.2994-.14.7648.7648,0,0,0,.2217-.2355.697.697,0,0,0,.0938-.3373.81.81,0,0,0-.0461-.2274.5131.5131,0,0,0-.1314-.1933,1.1253,1.1253,0,0,0-.2538-.1738,3.2183,3.2183,0,0,0-.4067-.1715l-.0838-.0278q-.2076-.0718-.4112-.1537a1.4726,1.4726,0,0,1-.3671-.2114.9962.9962,0,0,1-.2653-.3252,1.0687,1.0687,0,0,1-.1018-.4948.8718.8718,0,0,1,.1058-.4331,1.0332,1.0332,0,0,1,.2753-.3192,1.252,1.252,0,0,1,.3812-.1976,1.5632,1.5632,0,0,1,.4188-.0757h.0361a1.1845,1.1845,0,0,1,.3832.0757,1.6187,1.6187,0,0,1,.313.16,1.753,1.753,0,0,1,.24.19q.1016.0978.1655.1655l-.0757.0639a.8578.8578,0,0,1-.1379.0978.3151.3151,0,0,1-.1575.0419.3266.3266,0,0,1-.1-.0241.8762.8762,0,0,1-.0978-.0479c-.0331-.0186-.0672-.0384-.1018-.06s-.07-.0414-.1078-.06a.6489.6489,0,0,0-.1991-.072,1.0044,1.0044,0,0,0-.156-.0158.7924.7924,0,0,0-.3109.0617.7277.7277,0,0,0-.21.1377.5122.5122,0,0,0-.1179.1658.3977.3977,0,0,0-.0356.1457.52.52,0,0,0,.07.2773.6419.6419,0,0,0,.1856.1933,1.2222,1.2222,0,0,0,.2613.1357c.0973.0374.1961.0732.2974.1078l.04.012a3.9289,3.9289,0,0,1,.4469.18,1.72,1.72,0,0,1,.3892.2493,1.1405,1.1405,0,0,1,.2733.3473,1.0281,1.0281,0,0,1,.1038.4767,1.0992,1.0992,0,0,1-.1118.489,1.2993,1.2993,0,0,1-.3089.405,1.5027,1.5027,0,0,1-.4629.2773,1.5787,1.5787,0,0,1-.5687.1018,1.5065,1.5065,0,0,1-.7-.17A1.447,1.447,0,0,1,83.0042,43.7062Z" fill="#1160aa"/><path d="M86.8113,40.1068a.6862.6862,0,0,1,.0361.086.3232.3232,0,0,1,.016.1056V40.61a.8238.8238,0,0,1,.2753-.2553,2.0543,2.0543,0,0,1,.3787-.1775,2.4152,2.4152,0,0,1,.3852-.1018,1.8332,1.8332,0,0,1,.2934-.0318,2.0016,2.0016,0,0,1,.824.17,2.0328,2.0328,0,0,1,.6585.4629,2.1482,2.1482,0,0,1,.4348.6863,2.3187,2.3187,0,0,1,0,1.68,2.1454,2.1454,0,0,1-.4348.6863,2.029,2.029,0,0,1-.6585.4629,2.0017,2.0017,0,0,1-.824.17,1.9674,1.9674,0,0,1-.2914-.0241,1.34,1.34,0,0,1-.331-.0978,1.615,1.615,0,0,1-.3511-.2134,2.1239,2.1239,0,0,1-.3591-.3671v2.1029h-.5111V40.1068ZM88.196,43.85a1.5459,1.5459,0,0,0,.6344-.1276,1.5,1.5,0,0,0,.495-.3513,1.5859,1.5859,0,0,0,.321-.5226,1.8924,1.8924,0,0,0,0-1.2929,1.5844,1.5844,0,0,0-.321-.5228,1.5,1.5,0,0,0-.495-.3511,1.5418,1.5418,0,0,0-.6344-.1276,1.7988,1.7988,0,0,0-.71.1474,1.9569,1.9569,0,0,0-.6224.423v1.9434a1.39,1.39,0,0,0,.2633.337,1.7454,1.7454,0,0,0,.331.2455,1.52,1.52,0,0,0,.3671.15A1.4665,1.4665,0,0,0,88.196,43.85Z" fill="#1160aa"/><path d="M90.841,38.9257a.41.41,0,0,1,.0321-.1595.4043.4043,0,0,1,.22-.22.4121.4121,0,0,1,.5386.5389.4175.4175,0,0,1-.0878.1317.4142.4142,0,0,1-.2914.12.4068.4068,0,0,1-.3792-.2513A.412.412,0,0,1,90.841,38.9257Zm.6625,1.1811v4.19H90.993v-4.19Z" fill="#1160aa"/><path d="M93.3552,43.3231a.6114.6114,0,0,0,.0341.1976.6354.6354,0,0,0,.0978.1856.4926.4926,0,0,0,.1575.1357.44.44,0,0,0,.2172.0519l.1239-.016a1.1,1.1,0,0,1,.2834-.0479.3658.3658,0,0,1,.2217.072.8177.8177,0,0,1,.1735.1755l.012.0158a1.2917,1.2917,0,0,1-.1916.1038,2.1415,2.1415,0,0,1-.2217.0838,2.0714,2.0714,0,0,1-.2237.0579,1.02,1.02,0,0,1-.1971.0221,1.0771,1.0771,0,0,1-.4153-.076.8872.8872,0,0,1-.313-.2134.9363.9363,0,0,1-.2-.3293,1.2123,1.2123,0,0,1-.07-.419V40.5777h-.7583v-.2951q0-.1836.49-.1836h.2678v-.9459a.8426.8426,0,0,1,.0456-.2992,1.1885,1.1885,0,0,1,.0817-.18h.3832V40.103H94.612v.4747H93.3552Z" fill="#1160aa"/><path d="M95.1546,40.7174c.0371-.0451.0772-.09.12-.1357.0371-.0371.0782-.0757.1239-.1156a.9943.9943,0,0,1,.1394-.1038,2.5881,2.5881,0,0,1,.5111-.2315,1.9839,1.9839,0,0,1,.6184-.0878,1.6335,1.6335,0,0,1,.5727.0918,1.357,1.357,0,0,1,.4228.2473,1.3417,1.3417,0,0,1,.2934.3671,2.204,2.204,0,0,1,.1836.4531,3.1152,3.1152,0,0,1,.0958.4988,4.6905,4.6905,0,0,1,.0276.5048v2.0909h-.4308a.5236.5236,0,0,1-.0537-.0978.4219.4219,0,0,1-.03-.1735v-.2a2.1051,2.1051,0,0,1-.3711.2535,2.5011,2.5011,0,0,1-.3832.1655,2.1172,2.1172,0,0,1-.3751.09,2.46,2.46,0,0,1-.343.0261H96.22a1.6972,1.6972,0,0,1-.5151-.0938,1.3927,1.3927,0,0,1-.4308-.2415,1.1618,1.1618,0,0,1-.2974-.3731,1.0688,1.0688,0,0,1-.11-.4887,1.2127,1.2127,0,0,1,.1159-.5349,1.069,1.069,0,0,1,.3511-.407,1.78,1.78,0,0,1,.5928-.2593,3.4161,3.4161,0,0,1,.8441-.0918c.0958,0,.1971.004.3049.012s.2081.0173.3014.0278.174.0213.2432.0318.1133.0173.1319.02a2.7906,2.7906,0,0,0-.1359-.7064,1.2592,1.2592,0,0,0-.2452-.4328.7721.7721,0,0,0-.331-.2174,1.3593,1.3593,0,0,0-.7984,0,1.61,1.61,0,0,0-.3571.1755c-.0426.0266-.0863.0539-.1314.0817a.349.349,0,0,1-.1836.0419.52.52,0,0,1-.3195-.12Zm1.0617,3.1285a1.9154,1.9154,0,0,0,.3531-.0359,3.3168,3.3168,0,0,0,.3892-.1,3.9342,3.9342,0,0,0,.4007-.1537q.2016-.09.3932-.1976v-.9138c-.016-.0025-.0572-.0078-.1239-.0158s-.1464-.0145-.2392-.02-.1936-.0105-.3014-.0158-.2106-.008-.3089-.008a3.8464,3.8464,0,0,0-.5607.0379,1.5314,1.5314,0,0,0-.4433.1276.7443.7443,0,0,0-.2909.2395.6292.6292,0,0,0-.1058.3731.5906.5906,0,0,0,.0617.2673.679.679,0,0,0,.1735.2174.8124.8124,0,0,0,.2653.1457A1.0494,1.0494,0,0,0,96.2164,43.8459Z" fill="#1160aa"/><path d="M99.6919,38.5786v5.7181h-.5106V38.5786Z" fill="#1160aa"/><path d="M100.6895,40.7174c.0371-.0451.0772-.09.12-.1357.0371-.0371.0782-.0757.1239-.1156a.9943.9943,0,0,1,.1394-.1038,2.5881,2.5881,0,0,1,.5111-.2315,1.9839,1.9839,0,0,1,.6184-.0878,1.6335,1.6335,0,0,1,.5727.0918,1.357,1.357,0,0,1,.4228.2473,1.3417,1.3417,0,0,1,.2934.3671,2.204,2.204,0,0,1,.1836.4531,3.1152,3.1152,0,0,1,.0958.4988,4.6905,4.6905,0,0,1,.0276.5048v2.0909h-.4308a.5236.5236,0,0,1-.0537-.0978.4219.4219,0,0,1-.03-.1735v-.2a2.1051,2.1051,0,0,1-.3711.2535,2.501,2.501,0,0,1-.3832.1655,2.1172,2.1172,0,0,1-.3751.09,2.46,2.46,0,0,1-.343.0261h-.0557a1.6972,1.6972,0,0,1-.5151-.0938,1.3927,1.3927,0,0,1-.4308-.2415,1.1618,1.1618,0,0,1-.2974-.3731,1.0688,1.0688,0,0,1-.11-.4887,1.2127,1.2127,0,0,1,.1159-.5349,1.069,1.069,0,0,1,.3511-.407,1.78,1.78,0,0,1,.5928-.2593,3.4161,3.4161,0,0,1,.8441-.0918c.0958,0,.1971.004.3049.012s.2081.0173.3014.0278.174.0213.2432.0318.1133.0173.1319.02a2.7906,2.7906,0,0,0-.1359-.7064,1.2592,1.2592,0,0,0-.2452-.4328.7721.7721,0,0,0-.331-.2174,1.3593,1.3593,0,0,0-.7984,0,1.61,1.61,0,0,0-.3571.1755c-.0426.0266-.0863.0539-.1314.0817a.349.349,0,0,1-.1836.0419.52.52,0,0,1-.3195-.12Zm1.0617,3.1285a1.9154,1.9154,0,0,0,.3531-.0359,3.3168,3.3168,0,0,0,.3892-.1,3.9342,3.9342,0,0,0,.4007-.1537q.2016-.09.3932-.1976v-.9138c-.016-.0025-.0572-.0078-.1239-.0158s-.1464-.0145-.2392-.02-.1936-.0105-.3014-.0158-.2106-.008-.3089-.008a3.8464,3.8464,0,0,0-.5607.0379,1.5314,1.5314,0,0,0-.4433.1276.7443.7443,0,0,0-.2909.2395.6292.6292,0,0,0-.1058.3731.5906.5906,0,0,0,.0617.2673.679.679,0,0,0,.1735.2174.8124.8124,0,0,0,.2653.1457A1.0494,1.0494,0,0,0,101.7512,43.8459Z" fill="#1160aa"/><path d="M104.9033,40.1068a.77.77,0,0,1,.0356.086.3232.3232,0,0,1,.016.1056v.4709a.9133.9133,0,0,1,.2317-.2894,1.6642,1.6642,0,0,1,.3551-.2315,2.0016,2.0016,0,0,1,.4308-.1515,2.0251,2.0251,0,0,1,.4629-.0539,1.6028,1.6028,0,0,1,.4669.0677l-.04.22a.32.32,0,0,1-.0517.1357.2164.2164,0,0,1-.0858.07.33.33,0,0,1-.1118.0258c-.0411.0028-.0833.004-.1259.004h-.06a1.5968,1.5968,0,0,0-.5527.0958,1.7951,1.7951,0,0,0-.4629.2475,1.3178,1.3178,0,0,0-.323.341.79.79,0,0,0-.1339.3771v2.67h-.5106v-4.19Z" fill="#1160aa"/><path d="M115.6013,44.2968h-.4985v-4.928a.78.78,0,0,1-.0181.0817c-.0065.0226-.0135.0459-.02.07a.3235.3235,0,0,1-.0221.06l-2.0909,4.7166h-.5863L110.2861,39.58a.5013.5013,0,0,1-.0436-.1138.7418.7418,0,0,1-.02-.0975v4.928h-.499V38.5786h.3556a.476.476,0,0,1,.2693.0838.4207.4207,0,0,1,.17.2034l2.0989,4.7685c.0105.0293.0191.0579.0261.086a.5993.5993,0,0,1,.0135.0858.68.68,0,0,1,.014-.0858.7751.7751,0,0,1,.0261-.086l2.1109-4.7685a.4885.4885,0,0,1,.4388-.2871h.3551Z" fill="#1160aa"/><path d="M118.5457,40.0431a2.0881,2.0881,0,0,1,.7127.1216,2.1242,2.1242,0,0,1,1.0733.85,2.2931,2.2931,0,0,1,.2894.6482.599.599,0,0,1,.02.14.4952.4952,0,0,1-.0376.1936.56.56,0,0,1-.1018.16.4677.4677,0,0,1-.1515.11.45.45,0,0,1-.1876.04h-3.26a1.5766,1.5766,0,0,0,.152.6146,1.6076,1.6076,0,0,0,.8656.812,1.6563,1.6563,0,0,0,.6264.1179,1.17,1.17,0,0,0,.2257-.0241,1.823,1.823,0,0,0,.2432-.0657,2.3445,2.3445,0,0,0,.24-.0978,1.9677,1.9677,0,0,0,.2172-.12.3907.3907,0,0,1,.1259-.0517.59.59,0,0,1,.1334-.016.4235.4235,0,0,1,.1138.014.3883.3883,0,0,1,.0938.04.6336.6336,0,0,1,.0858.0617c.0281.0241.0592.0494.0938.076a2.4658,2.4658,0,0,1-.71.4927,2.3579,2.3579,0,0,1-.4213.1477,1.829,1.829,0,0,1-.4408.0539,2.0985,2.0985,0,0,1-.5742-.078,2.2031,2.2031,0,0,1-.5151-.2174,2.1272,2.1272,0,0,1-.4368-.3373,2.1874,2.1874,0,0,1-.339-.4368,2.14,2.14,0,0,1-.2974-1.0893,2.0776,2.0776,0,0,1,.1715-.84,2.19,2.19,0,0,1,1.155-1.1492A2.0877,2.0877,0,0,1,118.5457,40.0431Zm.004.5108a1.6517,1.6517,0,0,0-1.0953.405,1.62,1.62,0,0,0-.3591.4489,1.602,1.602,0,0,0-.1816.5627.4809.4809,0,0,1,.07-.1159.1706.1706,0,0,1,.1419-.0637h3.0006a1.6114,1.6114,0,0,0-.2257-.5248,1.5805,1.5805,0,0,0-.3651-.3889,1.559,1.559,0,0,0-.4644-.2415A1.6893,1.6893,0,0,0,118.55,40.5539Zm.4348-1.0457a.4872.4872,0,0,1-.1434.1038.5127.5127,0,0,1-.2157.0479l-.1755.004q.1-.1873.2036-.3631t.1856-.3112q.082-.1358.1359-.2194c.0356-.0559.0552-.0853.0577-.0878a.3769.3769,0,0,1,.1515-.1159.547.547,0,0,1,.24-.0519h.2989Z" fill="#1160aa"/><path d="M124.5074,44.2968a.2385.2385,0,0,1-.0476-.0717.3923.3923,0,0,1-.0321-.0978.7088.7088,0,0,1-.012-.1417v-.1678a2.3576,2.3576,0,0,1-.3987.2994,1.9923,1.9923,0,0,1-.3551.1635,1.4206,1.4206,0,0,1-.3175.07c-.1.0093-.1946.014-.2854.014a1.989,1.989,0,0,1-.822-.17,2.0406,2.0406,0,0,1-.6565-.4629,2.1628,2.1628,0,0,1-.4348-.6863,2.3187,2.3187,0,0,1,0-1.68,2.1656,2.1656,0,0,1,.4348-.6863,2.0406,2.0406,0,0,1,.6565-.4629,1.9888,1.9888,0,0,1,.822-.17c.0908,0,.1856.0045.2854.0138a1.4347,1.4347,0,0,1,.3175.07,2.01,2.01,0,0,1,.3551.1635,2.5984,2.5984,0,0,1,.3987.2914V38.5786h.5111v5.7181Zm-1.4484-3.7389a1.4364,1.4364,0,0,0-.6324.1377,1.5827,1.5827,0,0,0-.4925.3671,1.6616,1.6616,0,0,0-.3215.5266,1.7141,1.7141,0,0,0-.1138.6166,1.7455,1.7455,0,0,0,.1138.6284,1.6359,1.6359,0,0,0,.3215.5246,1.5469,1.5469,0,0,0,.4925.3613,1.4738,1.4738,0,0,0,.6324.1337,1.7557,1.7557,0,0,0,.7242-.16,2.0929,2.0929,0,0,0,.6324-.4348V41.1565a2.1271,2.1271,0,0,0-.6324-.4371A1.7383,1.7383,0,0,0,123.059,40.5579Z" fill="#1160aa"/><path d="M125.856,38.9257a.41.41,0,0,1,.0321-.1595.4043.4043,0,0,1,.22-.22.4121.4121,0,0,1,.5386.5389.4175.4175,0,0,1-.0878.1317.4142.4142,0,0,1-.2914.12.4068.4068,0,0,1-.3792-.2513A.412.412,0,0,1,125.856,38.9257Zm.6625,1.1811v4.19h-.5106v-4.19Z" fill="#1160aa"/><path d="M127.2768,42.2019a2.14,2.14,0,0,1,.2974-1.09,2.1874,2.1874,0,0,1,.339-.4368,2.1448,2.1448,0,0,1,.4368-.3373,2.2137,2.2137,0,0,1,.5151-.2174,2.1518,2.1518,0,0,1,1.41.0918,2.1683,2.1683,0,0,1,1.1495,1.1492,2.1656,2.1656,0,0,1,0,1.68,2.1683,2.1683,0,0,1-1.1495,1.1492,2.1473,2.1473,0,0,1-1.41.0918,2.2031,2.2031,0,0,1-.5151-.2174,2.1272,2.1272,0,0,1-.4368-.3373,2.1874,2.1874,0,0,1-.339-.4368,2.14,2.14,0,0,1-.2974-1.0893Zm.5106,0a1.6281,1.6281,0,0,0,.1279.6465,1.6537,1.6537,0,1,0,2.1666-2.1668,1.6624,1.6624,0,0,0-1.8155.3511,1.6449,1.6449,0,0,0-.3511.5228A1.6272,1.6272,0,0,0,127.7873,42.2019Z" fill="#1160aa"/><path d="M134.0564,39.0774v-.5028h4.2655v.5028h-1.8832v5.2194h-.499V39.0774Z" fill="#1160aa"/><path d="M139.91,40.0431a2.0881,2.0881,0,0,1,.7127.1216,2.1242,2.1242,0,0,1,1.0733.85,2.2931,2.2931,0,0,1,.2894.6482.599.599,0,0,1,.02.14.4952.4952,0,0,1-.0376.1936.56.56,0,0,1-.1018.16.4677.4677,0,0,1-.1515.11.45.45,0,0,1-.1876.04h-3.26a1.5766,1.5766,0,0,0,.152.6146,1.6076,1.6076,0,0,0,.8656.812,1.6563,1.6563,0,0,0,.6264.1179,1.17,1.17,0,0,0,.2257-.0241,1.823,1.823,0,0,0,.2432-.0657,2.3445,2.3445,0,0,0,.24-.0978,1.9677,1.9677,0,0,0,.2172-.12.3907.3907,0,0,1,.1259-.0517.59.59,0,0,1,.1334-.016.4235.4235,0,0,1,.1138.014.3883.3883,0,0,1,.0938.04.6336.6336,0,0,1,.0858.0617c.0281.0241.0592.0494.0938.076a2.4658,2.4658,0,0,1-.71.4927,2.3579,2.3579,0,0,1-.4213.1477,1.829,1.829,0,0,1-.4408.0539,2.0985,2.0985,0,0,1-.5742-.078,2.2031,2.2031,0,0,1-.5151-.2174,2.1272,2.1272,0,0,1-.4368-.3373,2.1874,2.1874,0,0,1-.339-.4368,2.14,2.14,0,0,1-.2974-1.0893,2.0776,2.0776,0,0,1,.1715-.84,2.19,2.19,0,0,1,1.155-1.1492A2.0877,2.0877,0,0,1,139.91,40.0431Zm.004.5108a1.6517,1.6517,0,0,0-1.0953.405,1.62,1.62,0,0,0-.3591.4489,1.602,1.602,0,0,0-.1816.5627.4809.4809,0,0,1,.07-.1159.1706.1706,0,0,1,.1419-.0637H141.49a1.6114,1.6114,0,0,0-.2257-.5248,1.5805,1.5805,0,0,0-.3651-.3889,1.559,1.559,0,0,0-.4644-.2415A1.6893,1.6893,0,0,0,139.9142,40.5539Z" fill="#1160aa"/><path d="M143.2378,44.2408a1.87,1.87,0,0,1-.3967,1.0434,1.8,1.8,0,0,1-.7167.5409l-.0436-.1a.4543.4543,0,0,1-.0341-.1018.4938.4938,0,0,1-.014-.0978.2382.2382,0,0,1,.06-.1735c.04-.0414.0863-.09.1394-.1457a2.0935,2.0935,0,0,0,.2713-.341,1.6651,1.6651,0,0,0,.15-.2994,1.0932,1.0932,0,0,0,.0617-.2455,1.6671,1.6671,0,0,0,.012-.18V40.1068h.5106Zm-.6665-5.3152a.4113.4113,0,0,1,.25-.3792.4052.4052,0,0,1,.1615-.0318.4114.4114,0,0,1,.3792.5707.4175.4175,0,0,1-.0878.1317.4142.4142,0,0,1-.2914.12.4009.4009,0,0,1-.1615-.0318.4126.4126,0,0,1-.13-.0878.4175.4175,0,0,1-.0878-.1317A.412.412,0,0,1,142.5713,38.9257Z" fill="#1160aa"/><path d="M143.9961,42.2019a2.14,2.14,0,0,1,.2974-1.09,2.1874,2.1874,0,0,1,.339-.4368,2.1448,2.1448,0,0,1,.4368-.3373,2.2137,2.2137,0,0,1,.5151-.2174,2.1518,2.1518,0,0,1,1.41.0918,2.1683,2.1683,0,0,1,1.1495,1.1492,2.1656,2.1656,0,0,1,0,1.68,2.1683,2.1683,0,0,1-1.1495,1.1492,2.1473,2.1473,0,0,1-1.41.0918,2.2031,2.2031,0,0,1-.5151-.2174,2.1272,2.1272,0,0,1-.4368-.3373,2.1874,2.1874,0,0,1-.339-.4368,2.14,2.14,0,0,1-.2974-1.0893Zm.5106,0a1.6281,1.6281,0,0,0,.1279.6465,1.6537,1.6537,0,1,0,2.1666-2.1668,1.6624,1.6624,0,0,0-1.8155.3511,1.6449,1.6449,0,0,0-.3511.5228A1.6272,1.6272,0,0,0,144.5066,42.2019Z" fill="#1160aa"/><path d="M149.403,43.5307a.3811.3811,0,0,1,.3074.1457.4669.4669,0,0,1,.0777.1474.5539.5539,0,0,1,.0261.1658c0,.0158-.001.0331-.002.0519s-.0035.0371-.006.0557c-.008.0639-.02.1337-.0361.21a1.1435,1.1435,0,0,1-.0817.2395,1.3657,1.3657,0,0,1-.1635.2613,1.5886,1.5886,0,0,1-.2894.2753l-.04-.06a.15.15,0,0,1-.0276-.0878.3275.3275,0,0,1,.0236-.12q.0241-.06.0542-.1219c.02-.0411.04-.083.06-.1256a.43.43,0,0,0,.0381-.1317.1568.1568,0,0,0,.004-.0359v-.04l-.0361-.008a.408.408,0,0,1-.323-.403.3885.3885,0,0,1,.0356-.1658.4351.4351,0,0,1,.2257-.2214A.3817.3817,0,0,1,149.403,43.5307Z" fill="#1160aa"/><path d="M156.2579,44.2968H152.85V38.5786h3.4079v.4988H153.349V41.16h2.3542v.499H153.349V43.798h2.9088Z" fill="#1160aa"/><path d="M156.9485,43.9575a.3986.3986,0,0,1,.03-.1555.3755.3755,0,0,1,.0838-.1256.4012.4012,0,0,1,.2854-.1179.3963.3963,0,0,1,.1575.0318.4006.4006,0,0,1,.1274.086.405.405,0,0,1,.0858.1256.3744.3744,0,0,1,.0321.1555.3883.3883,0,0,1-.0321.1577.4.4,0,0,1-.0858.1276.4041.4041,0,0,1-.1274.0858.4036.4036,0,0,1-.3155,0,.4041.4041,0,0,1-.1274-.0858.3716.3716,0,0,1-.0838-.1276A.4136.4136,0,0,1,156.9485,43.9575Z" fill="#1160aa"/><path d="M159.1792,44.2968h-.499V38.5786h1.9956a1.6853,1.6853,0,0,1,.674.1357,1.7367,1.7367,0,0,1,.9218.9218,1.7456,1.7456,0,0,1,0,1.3506,1.7114,1.7114,0,0,1-.3711.5507,1.76,1.76,0,0,1-.5507.3691,1.6853,1.6853,0,0,1-.674.1357h-1.4965Zm1.4965-2.7494a1.2131,1.2131,0,0,0,.48-.0958,1.2279,1.2279,0,0,0,.7523-1.1412,1.2278,1.2278,0,0,0-1.2327-1.233h-1.4965v2.47Z" fill="#1160aa"/><path d="M161.9642,43.9575a.3986.3986,0,0,1,.03-.1555.3755.3755,0,0,1,.0838-.1256.4012.4012,0,0,1,.2854-.1179.3963.3963,0,0,1,.1575.0318.4006.4006,0,0,1,.1274.086.405.405,0,0,1,.0858.1256.3744.3744,0,0,1,.0321.1555.3883.3883,0,0,1-.0321.1577.4.4,0,0,1-.0858.1276.4041.4041,0,0,1-.1274.0858.4036.4036,0,0,1-.3155,0,.4041.4041,0,0,1-.1274-.0858.3716.3716,0,0,1-.0838-.1276A.4136.4136,0,0,1,161.9642,43.9575Z" fill="#1160aa"/><path d="M167,44.2968h-3.4079V38.5786H167v.4988h-2.9088V41.16h2.3542v.499h-2.3542V43.798H167Z" fill="#1160aa"/><path d="M46.6858,23.3975a8.6634,8.6634,0,0,0,.3235,2.376,9.3023,9.3023,0,0,0,.9047,2.1408,8.6643,8.6643,0,0,0,1.3977,1.8095,9.2719,9.2719,0,0,0,1.81,1.3977,8.735,8.735,0,0,0,2.133.9047,8.8386,8.8386,0,0,0,2.3762.3165,8.6281,8.6281,0,0,0,2.7142-.4233,9.6584,9.6584,0,0,0,2.3762-1.1533,1.7875,1.7875,0,0,1,.4489-.2041,1.6954,1.6954,0,0,1,.493-.0732,1.7509,1.7509,0,0,1,.7428.1467,1.9836,1.9836,0,0,1,.5667.3957l.1469.1464a10.9658,10.9658,0,0,1-3.3838,2.2055,10.88,10.88,0,0,1-8.2982-.0474,10.8259,10.8259,0,0,1-5.73-5.7379,10.85,10.85,0,0,1,0-8.4008,10.8259,10.8259,0,0,1,5.73-5.7379,10.8965,10.8965,0,0,1,8.3128-.0441,10.8781,10.8781,0,0,1,3.3692,2.229l-.1469.1324a1.995,1.995,0,0,1-.5888.4118,1.7176,1.7176,0,0,1-.7207.1472,1.6211,1.6211,0,0,1-.9419-.2941,9.189,9.189,0,0,0-2.3687-1.17,8.6945,8.6945,0,0,0-2.7218-.4193,8.8486,8.8486,0,0,0-2.3762.3165,8.7545,8.7545,0,0,0-2.133.9047,9.2913,9.2913,0,0,0-1.81,1.3977,8.6774,8.6774,0,0,0-1.3977,1.8095,9.3116,9.3116,0,0,0-.9047,2.1408A8.6652,8.6652,0,0,0,46.6858,23.3975Z" fill="#080405"/><path d="M82.9957,33.9315h-1.824V24.236H68.7539v9.6955H66.9148V12.8484h1.8391V22.397H81.1716V12.8484h1.824Z" fill="#080405"/><path d="M109.8167,33.9463h-1.8391v-18.17a2.783,2.783,0,0,1-.0662.3014q-.0369.1253-.0737.2575a1.2713,1.2713,0,0,1-.0807.2207l-7.7094,17.39H97.8844l-7.6653-17.39a1.8478,1.8478,0,0,1-.1615-.4193,2.6487,2.6487,0,0,1-.0737-.36v18.17H88.1448V12.8632h1.3095a1.7563,1.7563,0,0,1,.993.3089,1.5463,1.5463,0,0,1,.6254.75l7.739,17.5817a3.0131,3.0131,0,0,1,.0953.3162,2.2656,2.2656,0,0,1,.0517.3162A2.194,2.194,0,0,1,99.01,31.82a2.7913,2.7913,0,0,1,.0953-.3162l7.7832-17.5817a1.8007,1.8007,0,0,1,1.6184-1.0592h1.3095Z" fill="#080405"/><path d="M112.7882,14.7023V12.8484H128.516v1.8539h-6.9441v19.244h-1.8391V14.7023Z" fill="#080405"/></svg>