<?xml version="1.0" encoding="UTF-8" standalone="no"?>
<svg
   xmlns:dc="http://purl.org/dc/elements/1.1/"
   xmlns:cc="http://creativecommons.org/ns#"
   xmlns:rdf="http://www.w3.org/1999/02/22-rdf-syntax-ns#"
   xmlns:svg="http://www.w3.org/2000/svg"
   xmlns="http://www.w3.org/2000/svg"
   xmlns:sodipodi="http://sodipodi.sourceforge.net/DTD/sodipodi-0.dtd"
   xmlns:inkscape="http://www.inkscape.org/namespaces/inkscape"
   viewBox="0 0 167 47.3132"
   version="1.1"
   id="svg92"
   sodipodi:docname="CHMT.svg"
   inkscape:version="0.92.3 (2405546, 2018-03-11)">
  <metadata
     id="metadata98">
    <rdf:RDF>
      <cc:Work
         rdf:about="">
        <dc:format>image/svg+xml</dc:format>
        <dc:type
           rdf:resource="http://purl.org/dc/dcmitype/StillImage" />
      </cc:Work>
    </rdf:RDF>
  </metadata>
  <defs
     id="defs96" />
  <sodipodi:namedview
     pagecolor="#ffffff"
     bordercolor="#666666"
     borderopacity="1"
     objecttolerance="10"
     gridtolerance="10"
     guidetolerance="10"
     inkscape:pageopacity="0"
     inkscape:pageshadow="2"
     inkscape:window-width="1920"
     inkscape:window-height="1001"
     id="namedview94"
     showgrid="false"
     inkscape:zoom="2.6107784"
     inkscape:cx="83.5"
     inkscape:cy="23.656601"
     inkscape:window-x="-9"
     inkscape:window-y="-9"
     inkscape:window-maximized="1"
     inkscape:current-layer="svg92" />
  <title
     id="title2">Ativo 66</title>
  <g
     id="g914"
     inkscape:export-xdpi="96"
     inkscape:export-ydpi="96">
    <path
       style="fill:#1160aa;fill-rule:evenodd;stroke-width:3.02390218"
       inkscape:connector-curvature="0"
       id="path4"
       d="M 0.11218677,-60.056995 0,-59.991678 0.03628683,11.531166 h 0.44753751 c 0,0 -0.0368916,-71.007572 -0.0368916,-71.265208 C 0.67100388,-59.863163 62.20469,-95.369519 62.20469,-95.369519 l -0.224071,-0.387362 z" />
    <polygon
       style="fill:#8399ce;fill-rule:evenodd"
       transform="matrix(3.0239021,0,0,3.0239021,0,-95.756881)"
       id="polygon6"
       points="2.496,13.273 18.109,4.263 18.113,22.295 " />
    <polygon
       style="fill:#1160aa;fill-rule:evenodd"
       transform="matrix(3.0239021,0,0,3.0239021,0,-95.756881)"
       id="polygon8"
       points="18.113,22.295 2.499,31.304 2.496,13.273 " />
    <polygon
       style="fill:#1160aa;fill-rule:evenodd"
       transform="matrix(3.0239021,0,0,3.0239021,0,-95.756881)"
       id="polygon10"
       points="40.967,35.456 40.98,11.819 20.497,0 20.493,23.654 " />
    <polygon
       style="fill:#8399ce;fill-rule:evenodd"
       transform="matrix(3.0239021,0,0,3.0239021,0,-95.756881)"
       id="polygon12"
       points="38.555,13.224 22.924,4.204 22.921,22.256 " />
    <polygon
       style="fill:#ffffff;fill-rule:evenodd"
       transform="matrix(3.0239021,0,0,3.0239021,0,-95.756881)"
       id="polygon14"
       points="22.921,22.256 38.552,31.275 38.555,13.224 " />
    <polygon
       style="fill:#8399ce;fill-rule:evenodd"
       transform="matrix(3.0239021,0,0,3.0239021,0,-95.756881)"
       id="polygon16"
       points="40.957,35.483 20.493,23.654 0.015,35.483 20.498,47.313 " />
    <polygon
       style="fill:#1160aa;fill-rule:evenodd"
       transform="matrix(3.0239021,0,0,3.0239021,0,-95.756881)"
       id="polygon18"
       points="20.496,26.456 4.87,35.483 20.501,44.511 " />
    <polygon
       style="fill:#ffffff;fill-rule:evenodd"
       transform="matrix(3.0239021,0,0,3.0239021,0,-95.756881)"
       id="polygon20"
       points="20.501,44.511 36.128,35.484 20.496,26.456 " />
  </g>
  <g
     id="g947"
     transform="translate(-1.4607634,10.724771)"
     inkscape:export-xdpi="96"
     inkscape:export-ydpi="96">
    <path
       style="fill:#1160aa"
       inkscape:connector-curvature="0"
       id="path22"
       d="m 3.6178899,82.036517 a 2.3414,2.3414 0 0 0 0.0878,0.6445 2.4962,2.4962 0 0 0 0.2452,0.5808 2.3626,2.3626 0 0 0 0.3792,0.4907 2.5066,2.5066 0 0 0 0.491,0.3792 2.3847,2.3847 0 0 0 1.2227,0.331 2.3421,2.3421 0 0 0 0.7362,-0.1146 2.6192,2.6192 0 0 0 0.6445,-0.313 0.48,0.48 0 0 1 0.1219,-0.0552 0.4564,0.4564 0 0 1 0.1334,-0.02 0.4741,0.4741 0 0 1 0.2016,0.04 0.533,0.533 0 0 1 0.1535,0.1073 l 0.04,0.04 a 2.9665,2.9665 0 0 1 -0.9178,0.5983 2.95,2.95 0 0 1 -2.25,-0.0128 2.9369,2.9369 0 0 1 -1.5542,-1.5562 2.94,2.94 0 0 1 0,-2.2787 2.9369,2.9369 0 0 1 1.5544,-1.5569 2.9539,2.9539 0 0 1 2.2544,-0.0118 2.9473,2.9473 0 0 1 0.9138,0.6043 l -0.04,0.0361 a 0.54,0.54 0 0 1 -0.1595,0.1116 0.467,0.467 0 0 1 -0.1956,0.04 0.4409,0.4409 0 0 1 -0.2553,-0.08 2.4829,2.4829 0 0 0 -0.6425,-0.3172 2.3579,2.3579 0 0 0 -0.7382,-0.1138 2.3816,2.3816 0 0 0 -1.2227,0.3313 2.5259,2.5259 0 0 0 -0.491,0.3792 2.3626,2.3626 0 0 0 -0.3792,0.4907 2.4989,2.4989 0 0 0 -0.2452,0.5805 2.344,2.344 0 0 0 -0.0884,0.6447 z" />
    <path
       style="fill:#1160aa"
       inkscape:connector-curvature="0"
       id="path24"
       d="m 10.66079,80.644017 a 2.0881,2.0881 0 0 1 0.7127,0.1216 2.1242,2.1242 0 0 1 1.0733,0.85 2.2931,2.2931 0 0 1 0.2894,0.6482 0.599,0.599 0 0 1 0.02,0.14 0.4952,0.4952 0 0 1 -0.0383,0.1934 0.56,0.56 0 0 1 -0.1018,0.16 0.4677,0.4677 0 0 1 -0.1515,0.11 0.45,0.45 0 0 1 -0.1876,0.04 H 9.0169899 a 1.5766,1.5766 0 0 0 0.152,0.6146 1.6076,1.6076 0 0 0 0.8656001,0.812 1.6563,1.6563 0 0 0 0.6264,0.1179 1.17,1.17 0 0 0 0.2257,-0.0241 1.823,1.823 0 0 0 0.2432,-0.0657 2.3445,2.3445 0 0 0 0.24,-0.0978 1.9677,1.9677 0 0 0 0.2172,-0.12 0.3907,0.3907 0 0 1 0.1259,-0.0517 0.59,0.59 0 0 1 0.1334,-0.016 0.4235,0.4235 0 0 1 0.1138,0.014 0.3883,0.3883 0 0 1 0.0938,0.04 0.6336,0.6336 0 0 1 0.0858,0.0617 c 0.0281,0.0241 0.0592,0.0494 0.0938,0.076 a 2.4658,2.4658 0 0 1 -0.71,0.4927 2.3579,2.3579 0 0 1 -0.4213,0.1477 1.829,1.829 0 0 1 -0.4408,0.0539 2.0985,2.0985 0 0 1 -0.5742,-0.078 2.2031,2.2031 0 0 1 -0.5151001,-0.2174 2.1272,2.1272 0 0 1 -0.4368,-0.3373 2.1874,2.1874 0 0 1 -0.339,-0.4368 2.14,2.14 0 0 1 -0.2974,-1.0893 2.0776,2.0776 0 0 1 0.1715,-0.84 2.19,2.19 0 0 1 1.155,-1.1492 2.0877,2.0877 0 0 1 0.8353001,-0.1704 z m 0.004,0.5108 a 1.6517,1.6517 0 0 0 -1.0953001,0.405 1.62,1.62 0 0 0 -0.3591,0.4489 1.602,1.602 0 0 0 -0.1816,0.5627 0.4809,0.4809 0 0 1 0.07,-0.1159 0.1706,0.1706 0 0 1 0.1419,-0.0637 H 12.24129 a 1.6114,1.6114 0 0 0 -0.2257,-0.5248 1.5805,1.5805 0 0 0 -0.3651,-0.3889 1.559,1.559 0 0 0 -0.4644,-0.2415 1.6893,1.6893 0 0 0 -0.5213,-0.0818 z" />
    <path
       style="fill:#1160aa"
       inkscape:connector-curvature="0"
       id="path26"
       d="m 13.85789,80.707717 a 0.6037,0.6037 0 0 1 0.0356,0.0938 0.7,0.7 0 0 1 0.016,0.1775 v 0.3634 a 1.856,1.856 0 0 1 0.3235,-0.3114 1.947,1.947 0 0 1 0.7458,-0.3471 1.7432,1.7432 0 0 1 0.3832,-0.0439 1.4229,1.4229 0 0 1 0.6169,0.13 1.2935,1.2935 0 0 1 0.4644,0.3711 1.7375,1.7375 0 0 1 0.2954,0.5845 2.6422,2.6422 0 0 1 0.1038,0.7663 v 2.4061 h -0.5106 v -2.4064 a 1.6872,1.6872 0 0 0 -0.25,-0.9918 0.88,0.88 0 0 0 -0.7678,-0.3491 1.8735,1.8735 0 0 0 -0.5426,0.0757 1.5217,1.5217 0 0 0 -0.4393,0.2076 1.099,1.099 0 0 0 -0.2989,0.3052 0.7515,0.7515 0 0 0 -0.1239,0.3651 v 2.7932 h -0.5106 v -4.19 z" />
    <path
       style="fill:#1160aa"
       inkscape:connector-curvature="0"
       id="path28"
       d="m 18.63349,83.924017 a 0.6114,0.6114 0 0 0 0.0341,0.1976 0.6354,0.6354 0 0 0 0.0978,0.1856 0.4926,0.4926 0 0 0 0.1575,0.1357 0.44,0.44 0 0 0 0.2172,0.0519 l 0.1239,-0.016 a 1.1,1.1 0 0 1 0.2834,-0.0479 0.3658,0.3658 0 0 1 0.2217,0.072 0.8177,0.8177 0 0 1 0.1735,0.1755 l 0.012,0.0158 a 1.2916,1.2916 0 0 1 -0.1916,0.1038 2.1415,2.1415 0 0 1 -0.2217,0.0838 2.0714,2.0714 0 0 1 -0.2237,0.0579 1.02,1.02 0 0 1 -0.1971,0.0221 1.0771,1.0771 0 0 1 -0.4153,-0.076 0.8872,0.8872 0 0 1 -0.313,-0.2134 0.9363,0.9363 0 0 1 -0.2,-0.3293 1.2123,1.2123 0 0 1 -0.07,-0.419 v -2.7455 h -0.7583 v -0.2951 q 0,-0.1836 0.49,-0.1836 h 0.2678 v -0.9459 a 0.8426,0.8426 0 0 1 0.0456,-0.2992 1.1885,1.1885 0 0 1 0.0817,-0.18 h 0.3832 v 1.4291 h 1.2568 v 0.4747 h -1.2555 z" />
    <path
       style="fill:#1160aa"
       inkscape:connector-curvature="0"
       id="path30"
       d="m 20.75699,80.707717 a 0.77,0.77 0 0 1 0.0356,0.086 0.3232,0.3232 0 0 1 0.016,0.1056 v 0.4709 a 0.9133,0.9133 0 0 1 0.2317,-0.2894 1.6642,1.6642 0 0 1 0.3551,-0.2315 2.0016,2.0016 0 0 1 0.4308,-0.1515 2.0251,2.0251 0 0 1 0.4629,-0.0539 1.6028,1.6028 0 0 1 0.4669,0.0677 l -0.04,0.22 a 0.32,0.32 0 0 1 -0.0517,0.1357 0.2164,0.2164 0 0 1 -0.0858,0.07 0.33,0.33 0 0 1 -0.1118,0.0258 c -0.0411,0.0028 -0.0833,0.004 -0.1259,0.004 h -0.06 a 1.5968,1.5968 0 0 0 -0.5527,0.0958 1.7951,1.7951 0 0 0 -0.4629,0.2475 1.3178,1.3178 0 0 0 -0.323,0.341 0.79,0.79 0 0 0 -0.1339,0.3771 v 2.67 h -0.5104 v -4.19 z" />
    <path
       style="fill:#1160aa"
       inkscape:connector-curvature="0"
       id="path32"
       d="m 22.75199,82.802817 a 2.14,2.14 0 0 1 0.2974,-1.09 2.1874,2.1874 0 0 1 0.339,-0.4368 2.1448,2.1448 0 0 1 0.4368,-0.3373 2.2137,2.2137 0 0 1 0.5151,-0.2174 2.1518,2.1518 0 0 1 1.41,0.0918 2.1683,2.1683 0 0 1 1.1495,1.1492 2.1656,2.1656 0 0 1 0,1.68 2.1683,2.1683 0 0 1 -1.1495,1.1492 2.1473,2.1473 0 0 1 -1.41,0.0918 2.2031,2.2031 0 0 1 -0.5151,-0.2174 2.1272,2.1272 0 0 1 -0.4368,-0.3373 2.1874,2.1874 0 0 1 -0.339,-0.4368 2.14,2.14 0 0 1 -0.2974,-1.0893 z m 0.5106,0 a 1.6281,1.6281 0 0 0 0.1279,0.6465 1.6537,1.6537 0 1 0 2.1666,-2.1668 1.6624,1.6624 0 0 0 -1.8155,0.3511 1.6449,1.6449 0 0 0 -0.3511,0.5228 1.6272,1.6272 0 0 0 -0.1279,0.6464 z" />
    <path
       style="fill:#1160aa"
       inkscape:connector-curvature="0"
       id="path34"
       d="m 34.47519,84.893717 h -0.495 v -2.63 h -3.3678 v 2.63 h -0.499 v -5.7182 h 0.499 v 2.59 h 3.3677 v -2.59 h 0.495 z" />
    <path
       style="fill:#1160aa"
       inkscape:connector-curvature="0"
       id="path36"
       d="m 35.26959,82.802817 a 2.14,2.14 0 0 1 0.2974,-1.09 2.1874,2.1874 0 0 1 0.339,-0.4368 2.1448,2.1448 0 0 1 0.4368,-0.3373 2.2137,2.2137 0 0 1 0.5151,-0.2174 2.1518,2.1518 0 0 1 1.41,0.0918 2.1683,2.1683 0 0 1 1.15,1.1496 2.1656,2.1656 0 0 1 0,1.68 2.1683,2.1683 0 0 1 -1.15,1.1491 2.1473,2.1473 0 0 1 -1.41,0.0918 2.2031,2.2031 0 0 1 -0.5151,-0.2174 2.1272,2.1272 0 0 1 -0.4368,-0.3373 2.1874,2.1874 0 0 1 -0.339,-0.4368 2.14,2.14 0 0 1 -0.2974,-1.0893 z m 0.5106,0 a 1.6281,1.6281 0 0 0 0.1279,0.6465 1.6537,1.6537 0 1 0 2.1666,-2.1668 1.6624,1.6624 0 0 0 -1.8155,0.3511 1.6449,1.6449 0 0 0 -0.3511,0.5228 1.6272,1.6272 0 0 0 -0.128,0.6464 z" />
    <path
       style="fill:#1160aa"
       inkscape:connector-curvature="0"
       id="path38"
       d="m 39.72209,84.307117 q 0.1279,-0.0639 0.2016,-0.1018 a 0.3559,0.3559 0 0 1 0.1655,-0.0379 0.6359,0.6359 0 0 1 0.14,0.016 0.5716,0.5716 0 0 1 0.18,0.0878 0.9439,0.9439 0 0 0 0.2613,0.1276 0.9816,0.9816 0 0 0 0.2934,0.0439 1.2052,1.2052 0 0 0 0.327,-0.0459 0.9924,0.9924 0 0 0 0.2994,-0.14 0.7648,0.7648 0 0 0 0.2217,-0.2355 0.697,0.697 0 0 0 0.0938,-0.3373 0.81,0.81 0 0 0 -0.0461,-0.2274 0.5131,0.5131 0 0 0 -0.1314,-0.1933 1.1253,1.1253 0 0 0 -0.2538,-0.1738 3.2183,3.2183 0 0 0 -0.4067,-0.1715 l -0.0838,-0.0278 q -0.2076,-0.0718 -0.4112,-0.1537 a 1.4726,1.4726 0 0 1 -0.3671,-0.2114 0.9962,0.9962 0 0 1 -0.2653,-0.3252 1.0687,1.0687 0 0 1 -0.1018,-0.4948 0.8718,0.8718 0 0 1 0.1058,-0.4331 1.0332,1.0332 0 0 1 0.2753,-0.3192 1.252,1.252 0 0 1 0.3812,-0.1976 1.5632,1.5632 0 0 1 0.4188,-0.0757 h 0.0361 a 1.1845,1.1845 0 0 1 0.3832,0.0757 1.6187,1.6187 0 0 1 0.313,0.16 1.753,1.753 0 0 1 0.24,0.19 q 0.1016,0.0978 0.1655,0.1655 l -0.0757,0.0639 a 0.8578,0.8578 0 0 1 -0.1379,0.0978 0.3151,0.3151 0 0 1 -0.1575,0.0419 0.3266,0.3266 0 0 1 -0.1,-0.0241 0.8762,0.8762 0 0 1 -0.0978,-0.0479 c -0.0331,-0.0186 -0.0672,-0.0384 -0.1018,-0.06 -0.0346,-0.0216 -0.07,-0.0414 -0.1078,-0.06 a 0.6489,0.6489 0 0 0 -0.1991,-0.072 1.0044,1.0044 0 0 0 -0.156,-0.0158 0.7924,0.7924 0 0 0 -0.3109,0.0617 0.7277,0.7277 0 0 0 -0.21,0.1377 0.5122,0.5122 0 0 0 -0.1179,0.1658 0.3977,0.3977 0 0 0 -0.0356,0.1457 0.52,0.52 0 0 0 0.07,0.2773 0.6419,0.6419 0 0 0 0.1856,0.1933 1.2222,1.2222 0 0 0 0.2613,0.1357 c 0.0973,0.0374 0.1961,0.0732 0.2974,0.1078 l 0.04,0.012 a 3.9289,3.9289 0 0 1 0.4469,0.18 1.72,1.72 0 0 1 0.3892,0.2493 1.1405,1.1405 0 0 1 0.2733,0.3473 1.0281,1.0281 0 0 1 0.1038,0.4767 1.0992,1.0992 0 0 1 -0.1118,0.489 1.2993,1.2993 0 0 1 -0.3089,0.405 1.5027,1.5027 0 0 1 -0.4629,0.2773 1.5787,1.5787 0 0 1 -0.5687,0.1018 1.5065,1.5065 0 0 1 -0.7,-0.17 1.447,1.447 0 0 1 -0.5426,-0.4808 z" />
    <path
       style="fill:#1160aa"
       inkscape:connector-curvature="0"
       id="path40"
       d="m 43.52919,80.707717 a 0.6862,0.6862 0 0 1 0.0361,0.086 0.3232,0.3232 0 0 1 0.016,0.1056 v 0.3116 a 0.8238,0.8238 0 0 1 0.2753,-0.2553 2.0543,2.0543 0 0 1 0.3787,-0.1775 2.4152,2.4152 0 0 1 0.3852,-0.1018 1.8332,1.8332 0 0 1 0.2934,-0.0318 2.0016,2.0016 0 0 1 0.824,0.17 2.0328,2.0328 0 0 1 0.6585,0.4629 2.1482,2.1482 0 0 1 0.4348,0.6863 2.3187,2.3187 0 0 1 0,1.68 2.1454,2.1454 0 0 1 -0.4348,0.6863 2.029,2.029 0 0 1 -0.6585,0.4629 2.0017,2.0017 0 0 1 -0.824,0.17 1.9674,1.9674 0 0 1 -0.2914,-0.0241 1.34,1.34 0 0 1 -0.331,-0.0978 1.615,1.615 0 0 1 -0.3511,-0.2134 2.1239,2.1239 0 0 1 -0.3591,-0.3671 v 2.1029 h -0.5111 v -5.6557 z m 1.3847,3.7432 a 1.5459,1.5459 0 0 0 0.6344,-0.1276 1.5,1.5 0 0 0 0.495,-0.3513 1.5859,1.5859 0 0 0 0.321,-0.5226 1.8924,1.8924 0 0 0 0,-1.2929 1.5844,1.5844 0 0 0 -0.321,-0.5228 1.5,1.5 0 0 0 -0.495,-0.3511 1.5418,1.5418 0 0 0 -0.6344,-0.1276 1.7988,1.7988 0 0 0 -0.71,0.1474 1.9569,1.9569 0 0 0 -0.6224,0.423 v 1.9434 a 1.39,1.39 0 0 0 0.2633,0.337 1.7454,1.7454 0 0 0 0.331,0.2455 1.52,1.52 0 0 0 0.3671,0.15 1.4665,1.4665 0 0 0 0.371,0.0496 z" />
    <path
       style="fill:#1160aa"
       inkscape:connector-curvature="0"
       id="path42"
       d="m 47.55889,79.526617 a 0.41,0.41 0 0 1 0.0321,-0.1595 0.4043,0.4043 0 0 1 0.22,-0.22 0.4121,0.4121 0 0 1 0.5386,0.5389 0.4175,0.4175 0 0 1 -0.0878,0.1317 0.4142,0.4142 0 0 1 -0.2914,0.12 0.4068,0.4068 0 0 1 -0.3792,-0.2513 0.412,0.412 0 0 1 -0.0323,-0.1598 z m 0.6625,1.1811 v 4.19 h -0.5105 v -4.19 z" />
    <path
       style="fill:#1160aa"
       inkscape:connector-curvature="0"
       id="path44"
       d="m 50.07309,83.924017 a 0.6114,0.6114 0 0 0 0.0341,0.1976 0.6354,0.6354 0 0 0 0.0978,0.1856 0.4926,0.4926 0 0 0 0.1575,0.1357 0.44,0.44 0 0 0 0.2172,0.0519 l 0.1239,-0.016 a 1.1,1.1 0 0 1 0.2834,-0.0479 0.3658,0.3658 0 0 1 0.2217,0.072 0.8177,0.8177 0 0 1 0.1735,0.1755 l 0.012,0.0158 a 1.2917,1.2917 0 0 1 -0.1916,0.1038 2.1415,2.1415 0 0 1 -0.2217,0.0838 2.0714,2.0714 0 0 1 -0.2237,0.0579 1.02,1.02 0 0 1 -0.1971,0.0221 1.0771,1.0771 0 0 1 -0.4153,-0.076 0.8872,0.8872 0 0 1 -0.313,-0.2134 0.9363,0.9363 0 0 1 -0.2,-0.3293 1.2123,1.2123 0 0 1 -0.07,-0.419 v -2.7455 h -0.7583 v -0.2951 q 0,-0.1836 0.49,-0.1836 h 0.2678 v -0.9459 a 0.8426,0.8426 0 0 1 0.0456,-0.2992 1.1885,1.1885 0 0 1 0.0817,-0.18 h 0.3832 v 1.4291 h 1.2581 v 0.4747 h -1.2568 z" />
    <path
       style="fill:#1160aa"
       inkscape:connector-curvature="0"
       id="path46"
       d="m 51.87249,81.318317 c 0.0371,-0.0451 0.0772,-0.09 0.12,-0.1357 0.0371,-0.0371 0.0782,-0.0757 0.1239,-0.1156 a 0.9943,0.9943 0 0 1 0.1394,-0.1038 2.5881,2.5881 0 0 1 0.5111,-0.2315 1.9839,1.9839 0 0 1 0.6184,-0.0878 1.6335,1.6335 0 0 1 0.5727,0.0918 1.357,1.357 0 0 1 0.4228,0.2473 1.3417,1.3417 0 0 1 0.2934,0.3671 2.204,2.204 0 0 1 0.1836,0.4531 3.1152,3.1152 0 0 1 0.0958,0.4988 4.6905,4.6905 0 0 1 0.0276,0.5048 v 2.0909 h -0.4308 a 0.5236,0.5236 0 0 1 -0.0537,-0.0978 0.4219,0.4219 0 0 1 -0.03,-0.1735 v -0.2 a 2.1051,2.1051 0 0 1 -0.3711,0.2535 2.5011,2.5011 0 0 1 -0.3832,0.1655 2.1172,2.1172 0 0 1 -0.3751,0.09 2.46,2.46 0 0 1 -0.343,0.0261 h -0.0564 a 1.6972,1.6972 0 0 1 -0.5151,-0.0938 1.3927,1.3927 0 0 1 -0.4308,-0.2415 1.1618,1.1618 0 0 1 -0.2974,-0.3731 1.0688,1.0688 0 0 1 -0.11,-0.4887 1.2127,1.2127 0 0 1 0.1159,-0.5349 1.069,1.069 0 0 1 0.3511,-0.407 1.78,1.78 0 0 1 0.5928,-0.2593 3.4161,3.4161 0 0 1 0.8441,-0.0918 c 0.0958,0 0.1971,0.004 0.3049,0.012 0.1078,0.008 0.2081,0.0173 0.3014,0.0278 0.0933,0.0105 0.174,0.0213 0.2432,0.0318 0.0692,0.0105 0.1133,0.0173 0.1319,0.02 a 2.7906,2.7906 0 0 0 -0.1359,-0.7064 1.2592,1.2592 0 0 0 -0.2452,-0.4328 0.7721,0.7721 0 0 0 -0.331,-0.2174 1.3593,1.3593 0 0 0 -0.7984,0 1.61,1.61 0 0 0 -0.3571,0.1755 c -0.0426,0.0266 -0.0863,0.0539 -0.1314,0.0817 a 0.349,0.349 0 0 1 -0.1836,0.0419 0.52,0.52 0 0 1 -0.3195,-0.12 z m 1.0617,3.1285 a 1.9154,1.9154 0 0 0 0.3531,-0.0359 3.3168,3.3168 0 0 0 0.3892,-0.1 3.9342,3.9342 0 0 0 0.4007,-0.1537 q 0.2016,-0.09 0.3932,-0.1976 v -0.9138 c -0.016,-0.0025 -0.0572,-0.0078 -0.1239,-0.0158 -0.0667,-0.008 -0.1464,-0.0145 -0.2392,-0.02 -0.0928,-0.0055 -0.1936,-0.0105 -0.3014,-0.0158 -0.1078,-0.0053 -0.2106,-0.008 -0.3089,-0.008 a 3.8464,3.8464 0 0 0 -0.5607,0.0379 1.5314,1.5314 0 0 0 -0.4433,0.1276 0.7443,0.7443 0 0 0 -0.2909,0.2395 0.6292,0.6292 0 0 0 -0.1058,0.3731 0.5906,0.5906 0 0 0 0.0617,0.2673 0.679,0.679 0 0 0 0.1735,0.2174 0.8124,0.8124 0 0 0 0.2653,0.1457 1.0494,1.0494 0 0 0 0.3375,0.0521 z" />
    <path
       style="fill:#1160aa"
       inkscape:connector-curvature="0"
       id="path48"
       d="m 56.40979,79.179517 v 5.7181 h -0.5106 v -5.7181 z" />
    <path
       style="fill:#1160aa"
       inkscape:connector-curvature="0"
       id="path50"
       d="m 57.40739,81.318317 c 0.0371,-0.0451 0.0772,-0.09 0.12,-0.1357 0.0371,-0.0371 0.0782,-0.0757 0.1239,-0.1156 a 0.9943,0.9943 0 0 1 0.1394,-0.1038 2.5881,2.5881 0 0 1 0.5111,-0.2315 1.9839,1.9839 0 0 1 0.6184,-0.0878 1.6335,1.6335 0 0 1 0.5727,0.0918 1.357,1.357 0 0 1 0.4228,0.2473 1.3417,1.3417 0 0 1 0.2934,0.3671 2.204,2.204 0 0 1 0.1836,0.4531 3.1152,3.1152 0 0 1 0.0958,0.4988 4.6905,4.6905 0 0 1 0.0276,0.5048 v 2.0909 h -0.4308 a 0.5236,0.5236 0 0 1 -0.0537,-0.0978 0.4219,0.4219 0 0 1 -0.03,-0.1735 v -0.2 a 2.1051,2.1051 0 0 1 -0.3711,0.2535 2.501,2.501 0 0 1 -0.3832,0.1655 2.1172,2.1172 0 0 1 -0.3751,0.09 2.46,2.46 0 0 1 -0.343,0.0261 h -0.0557 a 1.6972,1.6972 0 0 1 -0.5151,-0.0938 1.3927,1.3927 0 0 1 -0.4308,-0.2415 1.1618,1.1618 0 0 1 -0.2974,-0.3731 1.0688,1.0688 0 0 1 -0.11,-0.4887 1.2127,1.2127 0 0 1 0.1159,-0.5349 1.069,1.069 0 0 1 0.3511,-0.407 1.78,1.78 0 0 1 0.5928,-0.2593 3.4161,3.4161 0 0 1 0.8441,-0.0918 c 0.0958,0 0.1971,0.004 0.3049,0.012 0.1078,0.008 0.2081,0.0173 0.3014,0.0278 0.0933,0.0105 0.174,0.0213 0.2432,0.0318 0.0692,0.0105 0.1133,0.0173 0.1319,0.02 a 2.7906,2.7906 0 0 0 -0.1359,-0.7064 1.2592,1.2592 0 0 0 -0.2452,-0.4328 0.7721,0.7721 0 0 0 -0.331,-0.2174 1.3593,1.3593 0 0 0 -0.7984,0 1.61,1.61 0 0 0 -0.3571,0.1755 c -0.0426,0.0266 -0.0863,0.0539 -0.1314,0.0817 a 0.349,0.349 0 0 1 -0.1836,0.0419 0.52,0.52 0 0 1 -0.3195,-0.12 z m 1.0617,3.1285 a 1.9154,1.9154 0 0 0 0.3531,-0.0359 3.3168,3.3168 0 0 0 0.3892,-0.1 3.9342,3.9342 0 0 0 0.4007,-0.1537 q 0.2016,-0.09 0.3932,-0.1976 v -0.9138 c -0.016,-0.0025 -0.0572,-0.0078 -0.1239,-0.0158 -0.0667,-0.008 -0.1464,-0.0145 -0.2392,-0.02 -0.0928,-0.0055 -0.1936,-0.0105 -0.3014,-0.0158 -0.1078,-0.0053 -0.2106,-0.008 -0.3089,-0.008 a 3.8464,3.8464 0 0 0 -0.5607,0.0379 1.5314,1.5314 0 0 0 -0.4433,0.1276 0.7443,0.7443 0 0 0 -0.2909,0.2395 0.6292,0.6292 0 0 0 -0.1058,0.3731 0.5906,0.5906 0 0 0 0.0617,0.2673 0.679,0.679 0 0 0 0.1735,0.2174 0.8124,0.8124 0 0 0 0.2653,0.1457 1.0494,1.0494 0 0 0 0.3374,0.0521 z" />
    <path
       style="fill:#1160aa"
       inkscape:connector-curvature="0"
       id="path52"
       d="m 61.62119,80.707717 a 0.77,0.77 0 0 1 0.0356,0.086 0.3232,0.3232 0 0 1 0.016,0.1056 v 0.4709 a 0.9133,0.9133 0 0 1 0.2317,-0.2894 1.6642,1.6642 0 0 1 0.3551,-0.2315 2.0016,2.0016 0 0 1 0.4308,-0.1515 2.0251,2.0251 0 0 1 0.4629,-0.0539 1.6028,1.6028 0 0 1 0.4669,0.0677 l -0.04,0.22 a 0.32,0.32 0 0 1 -0.0517,0.1357 0.2164,0.2164 0 0 1 -0.0858,0.07 0.33,0.33 0 0 1 -0.1118,0.0258 c -0.0411,0.0028 -0.0833,0.004 -0.1259,0.004 h -0.06 a 1.5968,1.5968 0 0 0 -0.5527,0.0958 1.7951,1.7951 0 0 0 -0.4629,0.2475 1.3178,1.3178 0 0 0 -0.323,0.341 0.79,0.79 0 0 0 -0.1339,0.3771 v 2.67 h -0.5106 v -4.19 z" />
    <path
       style="fill:#1160aa"
       inkscape:connector-curvature="0"
       id="path54"
       d="m 72.31919,84.897717 h -0.4985 v -4.928 a 0.78,0.78 0 0 1 -0.0181,0.0817 c -0.0065,0.0226 -0.0135,0.0459 -0.02,0.07 a 0.3235,0.3235 0 0 1 -0.0221,0.06 l -2.0909,4.7166 h -0.5863 l -2.0793,-4.7171 a 0.5013,0.5013 0 0 1 -0.0436,-0.1138 0.7418,0.7418 0 0 1 -0.02,-0.0975 v 4.928 h -0.499 v -5.7181 h 0.3556 a 0.476,0.476 0 0 1 0.2693,0.0838 0.4207,0.4207 0 0 1 0.17,0.2034 l 2.0989,4.7685 c 0.0105,0.0293 0.0191,0.0579 0.0261,0.086 a 0.5993,0.5993 0 0 1 0.0135,0.0858 0.68,0.68 0 0 1 0.014,-0.0858 0.7751,0.7751 0 0 1 0.0261,-0.086 l 2.1109,-4.7685 a 0.4885,0.4885 0 0 1 0.4388,-0.2871 h 0.3551 z" />
    <path
       style="fill:#1160aa"
       inkscape:connector-curvature="0"
       id="path56"
       d="m 75.26359,80.644017 a 2.0881,2.0881 0 0 1 0.7127,0.1216 2.1242,2.1242 0 0 1 1.0733,0.85 2.2931,2.2931 0 0 1 0.2894,0.6482 0.599,0.599 0 0 1 0.02,0.14 0.4952,0.4952 0 0 1 -0.0376,0.1936 0.56,0.56 0 0 1 -0.1018,0.16 0.4677,0.4677 0 0 1 -0.1515,0.11 0.45,0.45 0 0 1 -0.1876,0.04 h -3.26 a 1.5766,1.5766 0 0 0 0.152,0.6146 1.6076,1.6076 0 0 0 0.8656,0.812 1.6563,1.6563 0 0 0 0.6264,0.1179 1.17,1.17 0 0 0 0.2257,-0.0241 1.823,1.823 0 0 0 0.2432,-0.0657 2.3445,2.3445 0 0 0 0.24,-0.0978 1.9677,1.9677 0 0 0 0.2172,-0.12 0.3907,0.3907 0 0 1 0.1259,-0.0517 0.59,0.59 0 0 1 0.1334,-0.016 0.4235,0.4235 0 0 1 0.1138,0.014 0.3883,0.3883 0 0 1 0.0938,0.04 0.6336,0.6336 0 0 1 0.0858,0.0617 c 0.0281,0.0241 0.0592,0.0494 0.0938,0.076 a 2.4658,2.4658 0 0 1 -0.71,0.4927 2.3579,2.3579 0 0 1 -0.4213,0.1477 1.829,1.829 0 0 1 -0.4408,0.0539 2.0985,2.0985 0 0 1 -0.5742,-0.078 2.2031,2.2031 0 0 1 -0.5151,-0.2174 2.1272,2.1272 0 0 1 -0.4368,-0.3373 2.1874,2.1874 0 0 1 -0.339,-0.4368 2.14,2.14 0 0 1 -0.2974,-1.0893 2.0776,2.0776 0 0 1 0.1715,-0.84 2.19,2.19 0 0 1 1.155,-1.1492 2.0877,2.0877 0 0 1 0.8346,-0.1706 z m 0.004,0.5108 a 1.6517,1.6517 0 0 0 -1.0953,0.405 1.62,1.62 0 0 0 -0.3591,0.4489 1.602,1.602 0 0 0 -0.1816,0.5627 0.4809,0.4809 0 0 1 0.07,-0.1159 0.1706,0.1706 0 0 1 0.1419,-0.0637 h 3.0006 a 1.6114,1.6114 0 0 0 -0.2257,-0.5248 1.5805,1.5805 0 0 0 -0.3651,-0.3889 1.559,1.559 0 0 0 -0.4644,-0.2415 1.6893,1.6893 0 0 0 -0.521,-0.0818 z m 0.4348,-1.0457 a 0.4872,0.4872 0 0 1 -0.1434,0.1038 0.5127,0.5127 0 0 1 -0.2157,0.0479 l -0.1755,0.004 q 0.1,-0.1873 0.2036,-0.3631 0.1036,-0.1758 0.1856,-0.3112 0.082,-0.1358 0.1359,-0.2194 c 0.0356,-0.0559 0.0552,-0.0853 0.0577,-0.0878 a 0.3769,0.3769 0 0 1 0.1515,-0.1159 0.547,0.547 0 0 1 0.24,-0.0519 h 0.2989 z" />
    <path
       style="fill:#1160aa"
       inkscape:connector-curvature="0"
       id="path58"
       d="m 81.22529,84.897717 a 0.2385,0.2385 0 0 1 -0.0476,-0.0717 0.3923,0.3923 0 0 1 -0.0321,-0.0978 0.7088,0.7088 0 0 1 -0.012,-0.1417 v -0.1678 a 2.3576,2.3576 0 0 1 -0.3987,0.2994 1.9923,1.9923 0 0 1 -0.3551,0.1635 1.4206,1.4206 0 0 1 -0.3175,0.07 c -0.1,0.0093 -0.1946,0.014 -0.2854,0.014 a 1.989,1.989 0 0 1 -0.822,-0.17 2.0406,2.0406 0 0 1 -0.6565,-0.4629 2.1628,2.1628 0 0 1 -0.4348,-0.6863 2.3187,2.3187 0 0 1 0,-1.68 2.1656,2.1656 0 0 1 0.4348,-0.6863 2.0406,2.0406 0 0 1 0.6565,-0.4629 1.9888,1.9888 0 0 1 0.822,-0.17 c 0.0908,0 0.1856,0.0045 0.2854,0.0138 a 1.4347,1.4347 0 0 1 0.3175,0.07 2.01,2.01 0 0 1 0.3551,0.1635 2.5984,2.5984 0 0 1 0.3987,0.2914 v -2.0064 h 0.5111 v 5.7181 z m -1.4484,-3.7389 a 1.4364,1.4364 0 0 0 -0.6324,0.1377 1.5827,1.5827 0 0 0 -0.4925,0.3671 1.6616,1.6616 0 0 0 -0.3215,0.5266 1.7141,1.7141 0 0 0 -0.1138,0.6166 1.7455,1.7455 0 0 0 0.1138,0.6284 1.6359,1.6359 0 0 0 0.3215,0.5246 1.5469,1.5469 0 0 0 0.4925,0.3613 1.4738,1.4738 0 0 0 0.6324,0.1337 1.7557,1.7557 0 0 0 0.7242,-0.16 2.0929,2.0929 0 0 0 0.6324,-0.4348 v -2.1026 a 2.1271,2.1271 0 0 0 -0.6324,-0.4371 1.7383,1.7383 0 0 0 -0.7242,-0.1615 z" />
    <path
       style="fill:#1160aa"
       inkscape:connector-curvature="0"
       id="path60"
       d="m 82.57389,79.526617 a 0.41,0.41 0 0 1 0.0321,-0.1595 0.4043,0.4043 0 0 1 0.22,-0.22 0.4121,0.4121 0 0 1 0.5386,0.5389 0.4175,0.4175 0 0 1 -0.0878,0.1317 0.4142,0.4142 0 0 1 -0.2914,0.12 0.4068,0.4068 0 0 1 -0.3792,-0.2513 0.412,0.412 0 0 1 -0.0323,-0.1598 z m 0.6625,1.1811 v 4.19 h -0.5106 v -4.19 z" />
    <path
       style="fill:#1160aa"
       inkscape:connector-curvature="0"
       id="path62"
       d="m 83.99469,82.802817 a 2.14,2.14 0 0 1 0.2974,-1.09 2.1874,2.1874 0 0 1 0.339,-0.4368 2.1448,2.1448 0 0 1 0.4368,-0.3373 2.2137,2.2137 0 0 1 0.5151,-0.2174 2.1518,2.1518 0 0 1 1.41,0.0918 2.1683,2.1683 0 0 1 1.1495,1.1492 2.1656,2.1656 0 0 1 0,1.68 2.1683,2.1683 0 0 1 -1.1495,1.1492 2.1473,2.1473 0 0 1 -1.41,0.0918 2.2031,2.2031 0 0 1 -0.5151,-0.2174 2.1272,2.1272 0 0 1 -0.4368,-0.3373 2.1874,2.1874 0 0 1 -0.339,-0.4368 2.14,2.14 0 0 1 -0.2974,-1.0893 z m 0.5106,0 a 1.6281,1.6281 0 0 0 0.1279,0.6465 1.6537,1.6537 0 1 0 2.1666,-2.1668 1.6624,1.6624 0 0 0 -1.8155,0.3511 1.6449,1.6449 0 0 0 -0.3511,0.5228 1.6272,1.6272 0 0 0 -0.128,0.6464 z" />
    <path
       style="fill:#1160aa"
       inkscape:connector-curvature="0"
       id="path64"
       d="m 90.77429,79.678317 v -0.5028 h 4.2655 v 0.5028 h -1.8832 v 5.2194 h -0.499 v -5.2194 z" />
    <path
       style="fill:#1160aa"
       inkscape:connector-curvature="0"
       id="path66"
       d="m 96.62789,80.644017 a 2.0881,2.0881 0 0 1 0.7127,0.1216 2.1242,2.1242 0 0 1 1.0733,0.85 2.2931,2.2931 0 0 1 0.2894,0.6482 0.599,0.599 0 0 1 0.02,0.14 0.4952,0.4952 0 0 1 -0.0376,0.1936 0.56,0.56 0 0 1 -0.1018,0.16 0.4677,0.4677 0 0 1 -0.1515,0.11 0.45,0.45 0 0 1 -0.1876,0.04 h -3.26 a 1.5766,1.5766 0 0 0 0.152,0.6146 1.6076,1.6076 0 0 0 0.8656,0.812 1.6563,1.6563 0 0 0 0.6264,0.1179 1.17,1.17 0 0 0 0.2257,-0.0241 1.823,1.823 0 0 0 0.2432,-0.0657 2.3445,2.3445 0 0 0 0.24,-0.0978 1.9677,1.9677 0 0 0 0.2172,-0.12 0.3907,0.3907 0 0 1 0.1259,-0.0517 0.59,0.59 0 0 1 0.1334,-0.016 0.4235,0.4235 0 0 1 0.1138,0.014 0.3883,0.3883 0 0 1 0.0938,0.04 0.6336,0.6336 0 0 1 0.0858,0.0617 c 0.0281,0.0241 0.0592,0.0494 0.0938,0.076 a 2.4658,2.4658 0 0 1 -0.71,0.4927 2.3579,2.3579 0 0 1 -0.4213,0.1477 1.829,1.829 0 0 1 -0.4408,0.0539 2.0985,2.0985 0 0 1 -0.5742,-0.078 2.2031,2.2031 0 0 1 -0.5151,-0.2174 2.1272,2.1272 0 0 1 -0.4368,-0.3373 2.1874,2.1874 0 0 1 -0.339,-0.4368 2.14,2.14 0 0 1 -0.2974,-1.0893 2.0776,2.0776 0 0 1 0.1715,-0.84 2.19,2.19 0 0 1 1.155,-1.1492 2.0877,2.0877 0 0 1 0.8346,-0.1706 z m 0.004,0.5108 a 1.6517,1.6517 0 0 0 -1.0953,0.405 1.62,1.62 0 0 0 -0.3591,0.4489 1.602,1.602 0 0 0 -0.1816,0.5627 0.4809,0.4809 0 0 1 0.07,-0.1159 0.1706,0.1706 0 0 1 0.1419,-0.0637 h 3.0001 a 1.6114,1.6114 0 0 0 -0.2257,-0.5248 1.5805,1.5805 0 0 0 -0.3651,-0.3889 1.559,1.559 0 0 0 -0.4644,-0.2415 1.6893,1.6893 0 0 0 -0.5206,-0.0818 z" />
    <path
       style="fill:#1160aa"
       inkscape:connector-curvature="0"
       id="path68"
       d="m 99.95569,84.841717 a 1.87,1.87 0 0 1 -0.3967,1.0434 1.8,1.8 0 0 1 -0.7167,0.5409 l -0.0436,-0.1 a 0.4543,0.4543 0 0 1 -0.0341,-0.1018 0.4938,0.4938 0 0 1 -0.014,-0.0978 0.2382,0.2382 0 0 1 0.06,-0.1735 c 0.04,-0.0414 0.0863,-0.09 0.1394,-0.1457 a 2.0935,2.0935 0 0 0 0.2713,-0.341 1.6651,1.6651 0 0 0 0.15,-0.2994 1.0932,1.0932 0 0 0 0.0617,-0.2455 1.6671,1.6671 0 0 0 0.012,-0.18 v -4.0336 h 0.5106 z m -0.6665,-5.3152 a 0.4113,0.4113 0 0 1 0.25,-0.3792 0.4052,0.4052 0 0 1 0.1615,-0.0318 0.4114,0.4114 0 0 1 0.3792,0.5707 0.4175,0.4175 0 0 1 -0.0878,0.1317 0.4142,0.4142 0 0 1 -0.2914,0.12 0.4009,0.4009 0 0 1 -0.1615,-0.0318 0.4126,0.4126 0 0 1 -0.13,-0.0878 0.4175,0.4175 0 0 1 -0.0878,-0.1317 0.412,0.412 0 0 1 -0.0322,-0.16 z" />
    <path
       style="fill:#1160aa"
       inkscape:connector-curvature="0"
       id="path70"
       d="m 100.71399,82.802817 a 2.14,2.14 0 0 1 0.2974,-1.09 2.1874,2.1874 0 0 1 0.339,-0.4368 2.1448,2.1448 0 0 1 0.4368,-0.3373 2.2137,2.2137 0 0 1 0.5151,-0.2174 2.1518,2.1518 0 0 1 1.41,0.0918 2.1683,2.1683 0 0 1 1.1495,1.1492 2.1656,2.1656 0 0 1 0,1.68 2.1683,2.1683 0 0 1 -1.1495,1.1492 2.1473,2.1473 0 0 1 -1.41,0.0918 2.2031,2.2031 0 0 1 -0.5151,-0.2174 2.1272,2.1272 0 0 1 -0.4368,-0.3373 2.1874,2.1874 0 0 1 -0.339,-0.4368 2.14,2.14 0 0 1 -0.2974,-1.0893 z m 0.5106,0 a 1.6281,1.6281 0 0 0 0.1279,0.6465 1.6537,1.6537 0 1 0 2.1666,-2.1668 1.6624,1.6624 0 0 0 -1.8155,0.3511 1.6449,1.6449 0 0 0 -0.3511,0.5228 1.6272,1.6272 0 0 0 -0.128,0.6464 z" />
    <path
       style="fill:#1160aa"
       inkscape:connector-curvature="0"
       id="path72"
       d="m 106.12089,84.131617 a 0.3811,0.3811 0 0 1 0.3074,0.1457 0.4669,0.4669 0 0 1 0.0777,0.1474 0.5539,0.5539 0 0 1 0.0261,0.1658 c 0,0.0158 -10e-4,0.0331 -0.002,0.0519 -0.001,0.0188 -0.004,0.0371 -0.006,0.0557 -0.008,0.0639 -0.02,0.1337 -0.0361,0.21 a 1.1435,1.1435 0 0 1 -0.0817,0.2395 1.3657,1.3657 0 0 1 -0.1635,0.2613 1.5886,1.5886 0 0 1 -0.2894,0.2753 l -0.04,-0.06 a 0.15,0.15 0 0 1 -0.0276,-0.0878 0.3275,0.3275 0 0 1 0.0236,-0.12 q 0.0241,-0.06 0.0542,-0.1219 c 0.02,-0.0411 0.04,-0.083 0.06,-0.1256 a 0.43,0.43 0 0 0 0.0381,-0.1317 0.1568,0.1568 0 0 0 0.004,-0.0359 v -0.04 l -0.0361,-0.008 a 0.408,0.408 0 0 1 -0.323,-0.403 0.3885,0.3885 0 0 1 0.0356,-0.1658 0.4351,0.4351 0 0 1 0.2257,-0.2214 0.3817,0.3817 0 0 1 0.153,-0.0315 z" />
    <path
       style="fill:#1160aa"
       inkscape:connector-curvature="0"
       id="path74"
       d="m 112.97579,84.897717 h -3.4079 v -5.7182 h 3.4079 v 0.4988 h -2.9089 v 2.0826 h 2.3542 v 0.499 h -2.3542 v 2.139 h 2.9088 z" />
    <path
       style="fill:#1160aa"
       inkscape:connector-curvature="0"
       id="path76"
       d="m 113.66639,84.558417 a 0.3986,0.3986 0 0 1 0.03,-0.1555 0.3755,0.3755 0 0 1 0.0838,-0.1256 0.4012,0.4012 0 0 1 0.2854,-0.1179 0.3963,0.3963 0 0 1 0.1575,0.0318 0.4006,0.4006 0 0 1 0.1274,0.086 0.405,0.405 0 0 1 0.0858,0.1256 0.3744,0.3744 0 0 1 0.0321,0.1555 0.3883,0.3883 0 0 1 -0.0321,0.1577 0.4,0.4 0 0 1 -0.0858,0.1276 0.4041,0.4041 0 0 1 -0.1274,0.0858 0.4036,0.4036 0 0 1 -0.3155,0 0.4041,0.4041 0 0 1 -0.1274,-0.0858 0.3716,0.3716 0 0 1 -0.0838,-0.1276 0.4136,0.4136 0 0 1 -0.03,-0.1576 z" />
    <path
       style="fill:#1160aa"
       inkscape:connector-curvature="0"
       id="path78"
       d="m 115.89709,84.897717 h -0.499 v -5.7182 h 1.9956 a 1.6853,1.6853 0 0 1 0.674,0.1357 1.7367,1.7367 0 0 1 0.9218,0.9218 1.7456,1.7456 0 0 1 0,1.3506 1.7114,1.7114 0 0 1 -0.3711,0.5507 1.76,1.76 0 0 1 -0.5507,0.3691 1.6853,1.6853 0 0 1 -0.674,0.1357 h -1.4965 z m 1.4965,-2.7494 a 1.2131,1.2131 0 0 0 0.48,-0.0958 1.2279,1.2279 0 0 0 0.7523,-1.1412 1.2278,1.2278 0 0 0 -1.2327,-1.233 h -1.4965 v 2.47 z" />
    <path
       style="fill:#1160aa"
       inkscape:connector-curvature="0"
       id="path80"
       d="m 118.68209,84.558417 a 0.3986,0.3986 0 0 1 0.03,-0.1555 0.3755,0.3755 0 0 1 0.0838,-0.1256 0.4012,0.4012 0 0 1 0.2854,-0.1179 0.3963,0.3963 0 0 1 0.1575,0.0318 0.4006,0.4006 0 0 1 0.1274,0.086 0.405,0.405 0 0 1 0.0858,0.1256 0.3744,0.3744 0 0 1 0.0321,0.1555 0.3883,0.3883 0 0 1 -0.0321,0.1577 0.4,0.4 0 0 1 -0.0858,0.1276 0.4041,0.4041 0 0 1 -0.1274,0.0858 0.4036,0.4036 0 0 1 -0.3155,0 0.4041,0.4041 0 0 1 -0.1274,-0.0858 0.3716,0.3716 0 0 1 -0.0838,-0.1276 0.4136,0.4136 0 0 1 -0.03,-0.1576 z" />
    <path
       style="fill:#1160aa"
       inkscape:connector-curvature="0"
       id="path82"
       d="m 123.71789,84.897717 h -3.4079 v -5.7182 h 3.4079 v 0.4988 h -2.9088 v 2.0826 h 2.3542 v 0.499 h -2.3542 v 2.139 h 2.9088 z" />
  </g>
  <g
     id="g953"
     transform="matrix(1.4487113,0,0,1.4487113,-0.92397648,-25.026781)"
     inkscape:export-xdpi="96"
     inkscape:export-ydpi="96">
    <path
       style="fill:#080405"
       inkscape:connector-curvature="0"
       id="path84"
       d="m 3.4036899,63.998417 a 8.6634,8.6634 0 0 0 0.3235,2.376 9.3023,9.3023 0 0 0 0.9047,2.1408 8.6643,8.6643 0 0 0 1.3977,1.8095 9.2719,9.2719 0 0 0 1.81,1.3977 8.735,8.735 0 0 0 2.133,0.9047 8.8386,8.8386 0 0 0 2.3762001,0.3165 8.6281,8.6281 0 0 0 2.7142,-0.4233 9.6584,9.6584 0 0 0 2.3762,-1.1533 1.7875,1.7875 0 0 1 0.4489,-0.2041 1.6954,1.6954 0 0 1 0.493,-0.0732 1.7509,1.7509 0 0 1 0.7428,0.1467 1.9836,1.9836 0 0 1 0.5667,0.3957 l 0.1469,0.1464 a 10.9658,10.9658 0 0 1 -3.3838,2.2055 10.88,10.88 0 0 1 -8.2982001,-0.0474 10.8259,10.8259 0 0 1 -5.73,-5.7379 10.85,10.85 0 0 1 0,-8.4008 10.8259,10.8259 0 0 1 5.73,-5.7379 10.8965,10.8965 0 0 1 8.3128001,-0.0441 10.8781,10.8781 0 0 1 3.3692,2.229 l -0.1469,0.1324 a 1.995,1.995 0 0 1 -0.5888,0.4118 1.7176,1.7176 0 0 1 -0.7207,0.1472 1.6211,1.6211 0 0 1 -0.9419,-0.2941 9.189,9.189 0 0 0 -2.3687,-1.17 8.6945,8.6945 0 0 0 -2.7218,-0.4193 8.8486,8.8486 0 0 0 -2.3762001,0.3165 8.7545,8.7545 0 0 0 -2.133,0.9047 9.2913,9.2913 0 0 0 -1.81,1.3977 8.6774,8.6774 0 0 0 -1.3977,1.8095 9.3116,9.3116 0 0 0 -0.9047,2.1408 8.6652,8.6652 0 0 0 -0.3234,2.3763 z" />
    <path
       style="fill:#080405"
       inkscape:connector-curvature="0"
       id="path86"
       d="m 39.71359,74.532417 h -1.824 v -9.6955 h -12.4178 v 9.6955 h -1.8391 v -21.0831 h 1.8391 v 9.5486 h 12.4177 v -9.5486 h 1.824 z" />
    <path
       style="fill:#080405"
       inkscape:connector-curvature="0"
       id="path88"
       d="m 66.53459,74.547217 h -1.8391 v -18.17 a 2.783,2.783 0 0 1 -0.0662,0.3014 q -0.0369,0.1253 -0.0737,0.2575 a 1.2713,1.2713 0 0 1 -0.0807,0.2207 l -7.7094,17.39 h -2.1632 l -7.6653,-17.39 a 1.8478,1.8478 0 0 1 -0.1615,-0.4193 2.6487,2.6487 0 0 1 -0.0737,-0.36 v 18.17 h -1.8391 v -21.0834 h 1.3095 a 1.7563,1.7563 0 0 1 0.993,0.3089 1.5463,1.5463 0 0 1 0.6254,0.75 l 7.739,17.5817 a 3.0131,3.0131 0 0 1 0.0953,0.3162 2.2656,2.2656 0 0 1 0.0517,0.3162 2.194,2.194 0 0 1 0.0513,-0.3162 2.7913,2.7913 0 0 1 0.0953,-0.3162 l 7.7832,-17.5817 a 1.8007,1.8007 0 0 1 1.6184,-1.0592 h 1.3095 z" />
    <path
       style="fill:#080405"
       inkscape:connector-curvature="0"
       id="path90"
       d="m 69.50609,55.303217 v -1.8539 h 15.7278 v 1.8539 h -6.9441 v 19.244 h -1.8391 v -19.244 z" />
  </g>
</svg>
